<svg fill="none" height="128" viewBox="0 0 352 128" width="352" xmlns="http://www.w3.org/2000/svg"><path d="m22.2363 37.5274h19.9534c12.7601 0 23.1809 7.4044 23.1809 24.2019v3.5896c0 16.86-9.8328 24.4895-22.8807 24.4895h-20.2536zm11.1464 9.4681v33.2197h8.5818c7.1807 0 12.0971-4.7653 12.0971-15.2465v-2.7141c0-10.4812-5.054-15.2465-12.4724-15.2465h-8.2065zm37.9176.5129h8.8695l1.3886 9.8308c1.6889-6.7415 6.0173-10.1936 13.861-10.1936h2.7147v11.2192h-4.5411c-9.0948 0-11.2965 3.1518-11.2965 12.0946v19.3615h-10.9962zm29.1857 22.063v-1.1757c0-14.2209 9.095-21.8504 21.417-21.8504 12.61 0 21.342 7.7671 21.342 21.8504v1.1757c0 13.9332-8.582 21.3376-21.342 21.3376-13.636 0-21.417-7.4044-21.417-21.3376zm31.613-.1501v-1.0256c0-7.9172-3.966-12.5324-10.196-12.5324-6.155 0-10.271 4.3276-10.271 12.5324v1.0256c0 7.6295 3.891 11.882 10.196 11.882 6.317 0 10.271-4.1774 10.271-11.882zm16.938-21.9129h9.245l1.101 8.0672c2.276-5.4282 6.968-9.0178 13.936-9.0178 10.783 0 17.826 7.7671 17.826 22.0005v1.1757c0 13.9332-7.843 21.1875-17.826 21.1875-6.743 0-11.222-3.0017-13.498-7.9171v21.3376h-10.784zm30.95 21.988v-.9506c0-8.43-4.329-12.6075-10.121-12.6075-6.155 0-10.271 4.6903-10.271 12.5325v.8129c0 7.4795 3.966 12.1697 10.046 12.1697 6.317 0 10.346-4.1774 10.346-11.957zm27.359 12.6199-.876 7.7046h-9.533v-56.4709h10.784v21.7003c2.352-5.5032 7.043-8.505 13.711-8.505 10.045.075 17.526 7.0416 17.526 21.1125v1.2507c0 14.0833-7.043 22.0005-17.826 22.0005-6.968 0-11.509-3.3645-13.786-8.7927zm20.541-13.2078v-1.0256c0-7.7671-4.253-12.0196-10.12-12.0196-6.093 0-10.271 4.9154-10.271 12.1697v.8755c0 7.9172 4.028 12.4699 10.12 12.4699 6.38 0 10.271-4.1024 10.271-12.4699zm15.988.6629v-1.1757c0-14.2209 9.019-21.8504 21.342-21.8504 12.61 0 21.417 7.7671 21.417 21.8504v1.1757c0 13.9332-8.657 21.3376-21.417 21.3376-13.649 0-21.342-7.4044-21.342-21.3376zm31.6-.1501v-1.0256c0-7.9172-3.966-12.5324-10.196-12.5324-6.155 0-10.27 4.3276-10.27 12.5324v1.0256c0 7.6295 3.89 11.882 10.195 11.882 6.393 0 10.271-4.1774 10.271-11.882zm25.533-1.5384-14.812-20.3871h12.685l8.582 12.6825 8.657-12.6825h12.61l-15.037 20.3121 15.837 22.0005h-12.472l-9.758-14.0083-9.457 14.0083h-12.911z" fill="#1e1919"/></svg>